<svg xmlns="http://www.w3.org/2000/svg" width="210.23" height="35" viewBox="0 0 210.23 35"><rect class="svg__rect" x="0" y="0" width="130.94" height="35" fill="#31C4F3" data-darkreader-inline-fill="" style="--darkreader-inline-fill:#0a85ac;"/><rect class="svg__rect" x="128.94" y="0" width="81.28999999999999" height="35" fill="#389AD5" data-darkreader-inline-fill="" style="--darkreader-inline-fill:#2272a2;"/><path class="svg__text" d="M16.25 14.66L13.61 14.66L13.61 13.47L20.38 13.47L20.38 14.66L17.72 14.66L17.72 22L16.25 22L16.25 14.66ZM29.72 22L24.14 22L24.14 13.47L29.67 13.47L29.67 14.66L25.62 14.66L25.62 17.02L29.12 17.02L29.12 18.19L25.62 18.19L25.62 20.82L29.72 20.82L29.72 22ZM33.48 19.42L33.48 19.42L34.96 19.42Q34.96 20.15 35.44 20.55Q35.92 20.95 36.82 20.95L36.82 20.95Q37.59 20.95 37.98 20.63Q38.37 20.32 38.37 19.80L38.37 19.80Q38.37 19.24 37.97 18.94Q37.58 18.63 36.55 18.32Q35.52 18.01 34.91 17.63L34.91 17.63Q33.74 16.90 33.74 15.72L33.74 15.72Q33.74 14.69 34.58 14.02Q35.42 13.35 36.76 13.35L36.76 13.35Q37.65 13.35 38.35 13.68Q39.05 14.01 39.45 14.61Q39.85 15.22 39.85 15.96L39.85 15.96L38.37 15.96Q38.37 15.29 37.95 14.91Q37.53 14.54 36.75 14.54L36.75 14.54Q36.03 14.54 35.62 14.85Q35.22 15.16 35.22 15.71L35.22 15.71Q35.22 16.18 35.66 16.50Q36.09 16.81 37.09 17.10Q38.08 17.40 38.69 17.78Q39.29 18.16 39.57 18.65Q39.85 19.13 39.85 19.79L39.85 19.79Q39.85 20.86 39.03 21.49Q38.22 22.12 36.82 22.12L36.82 22.12Q35.89 22.12 35.11 21.77Q34.34 21.43 33.91 20.83Q33.48 20.22 33.48 19.42ZM45.82 14.66L43.19 14.66L43.19 13.47L49.95 13.47L49.95 14.66L47.29 14.66L47.29 22L45.82 22L45.82 14.66ZM59.29 22L53.71 22L53.71 13.47L59.25 13.47L59.25 14.66L55.19 14.66L55.19 17.02L58.70 17.02L58.70 18.19L55.19 18.19L55.19 20.82L59.29 20.82L59.29 22ZM65.94 22L63.48 22L63.48 13.47L66.00 13.47Q67.13 13.47 68.01 13.97Q68.89 14.48 69.37 15.40Q69.85 16.33 69.85 17.52L69.85 17.52L69.85 17.95Q69.85 19.16 69.36 20.08Q68.88 21.00 67.99 21.50Q67.09 22 65.94 22L65.94 22ZM64.97 14.66L64.97 20.82L65.93 20.82Q67.10 20.82 67.72 20.09Q68.35 19.36 68.36 17.99L68.36 17.99L68.36 17.52Q68.36 16.13 67.75 15.40Q67.15 14.66 66.00 14.66L66.00 14.66L64.97 14.66ZM81.67 22L79.70 13.47L81.17 13.47L82.50 19.88L84.13 13.47L85.37 13.47L86.98 19.89L88.29 13.47L89.76 13.47L87.79 22L86.38 22L84.75 15.77L83.09 22L81.67 22ZM95.40 22L93.92 22L93.92 13.47L95.40 13.47L95.40 22ZM101.89 14.66L99.25 14.66L99.25 13.47L106.02 13.47L106.02 14.66L103.36 14.66L103.36 22L101.89 22L101.89 14.66ZM111.26 22L109.78 22L109.78 13.47L111.26 13.47L111.26 17.02L115.07 17.02L115.07 13.47L116.55 13.47L116.55 22L115.07 22L115.07 18.21L111.26 18.21L111.26 22Z" fill="#FFFFFF" data-darkreader-inline-fill="" style="--darkreader-inline-fill:#181a1b;"/><path class="svg__text" d="M145.51 22L143.13 22L143.13 13.60L146.97 13.60Q148.11 13.60 148.95 13.98Q149.79 14.35 150.25 15.06Q150.70 15.76 150.70 16.71L150.70 16.71Q150.70 17.62 150.28 18.30Q149.85 18.98 149.06 19.36L149.06 19.36L150.87 22L148.33 22L146.80 19.77L145.51 19.77L145.51 22ZM145.51 15.47L145.51 17.93L146.83 17.93Q147.56 17.93 147.93 17.61Q148.30 17.29 148.30 16.71L148.30 16.71Q148.30 16.12 147.93 15.79Q147.56 15.47 146.83 15.47L146.83 15.47L145.51 15.47ZM154.91 21.24L154.91 21.24L155.68 19.49Q156.25 19.86 156.99 20.09Q157.74 20.32 158.46 20.32L158.46 20.32Q159.82 20.32 159.83 19.64L159.83 19.64Q159.83 19.28 159.44 19.11Q159.05 18.93 158.18 18.74L158.18 18.74Q157.23 18.53 156.60 18.30Q155.96 18.06 155.51 17.55Q155.05 17.03 155.05 16.16L155.05 16.16Q155.05 15.39 155.47 14.77Q155.89 14.15 156.72 13.79Q157.56 13.43 158.77 13.43L158.77 13.43Q159.59 13.43 160.40 13.62Q161.20 13.80 161.82 14.17L161.82 14.17L161.09 15.93Q159.89 15.28 158.75 15.28L158.75 15.28Q158.05 15.28 157.72 15.49Q157.40 15.70 157.40 16.04L157.40 16.04Q157.40 16.37 157.79 16.54Q158.17 16.71 159.02 16.89L159.02 16.89Q159.98 17.10 160.61 17.33Q161.24 17.56 161.70 18.07Q162.16 18.58 162.16 19.46L162.16 19.46Q162.16 20.21 161.75 20.83Q161.33 21.44 160.49 21.80Q159.65 22.17 158.44 22.17L158.44 22.17Q157.42 22.17 156.46 21.92Q155.50 21.67 154.91 21.24ZM169.12 22L166.74 22L166.74 13.60L170.58 13.60Q171.72 13.60 172.56 13.98Q173.40 14.35 173.86 15.06Q174.32 15.76 174.32 16.71L174.32 16.71Q174.32 17.66 173.86 18.35Q173.40 19.05 172.56 19.42Q171.72 19.80 170.58 19.80L170.58 19.80L169.12 19.80L169.12 22ZM169.12 15.47L169.12 17.93L170.44 17.93Q171.17 17.93 171.54 17.61Q171.91 17.29 171.91 16.71L171.91 16.71Q171.91 16.12 171.54 15.80Q171.17 15.47 170.44 15.47L170.44 15.47L169.12 15.47ZM185.81 22L179.07 22L179.07 13.60L185.66 13.60L185.66 15.44L181.42 15.44L181.42 16.85L185.16 16.85L185.16 18.63L181.42 18.63L181.42 20.17L185.81 20.17L185.81 22ZM190.19 17.80L190.19 17.80Q190.19 16.54 190.79 15.54Q191.39 14.55 192.44 13.99Q193.49 13.43 194.81 13.43L194.81 13.43Q195.96 13.43 196.88 13.84Q197.81 14.25 198.42 15.02L198.42 15.02L196.91 16.39Q196.10 15.40 194.93 15.40L194.93 15.40Q194.25 15.40 193.71 15.70Q193.18 16 192.88 16.54Q192.59 17.09 192.59 17.80L192.59 17.80Q192.59 18.51 192.88 19.05Q193.18 19.60 193.71 19.90Q194.25 20.20 194.93 20.20L194.93 20.20Q196.10 20.20 196.91 19.22L196.91 19.22L198.42 20.58Q197.81 21.35 196.89 21.76Q195.96 22.17 194.81 22.17L194.81 22.17Q193.49 22.17 192.44 21.61Q191.39 21.05 190.79 20.05Q190.19 19.06 190.19 17.80Z" fill="#FFFFFF" x="141.94" data-darkreader-inline-fill="" style="--darkreader-inline-fill:#181a1b;"/></svg>